<svg width="49" height="55" viewBox="0 0 49 55" fill="none" xmlns="http://www.w3.org/2000/svg">
<path d="M48.6899 24.345C48.6899 19.8257 47.4403 15.4839 45.1718 11.7382C45.7243 10.9089 46.5233 10.111 47.6663 9.68366C48.0733 9.53134 48.3362 9.15132 48.3362 8.71523C48.3362 8.27915 48.0733 7.89913 47.6662 7.7467C45.532 6.94882 44.5957 4.85867 44.2276 3.68387C44.0918 3.25034 43.6949 2.95891 43.2401 2.95891C42.7852 2.95891 42.3885 3.25013 42.2526 3.68377C42.0257 4.40788 41.5825 5.47928 40.7766 6.38194C39.8796 5.56179 38.9165 4.80165 37.8891 4.1126C37.5223 3.86658 37.0257 3.96454 36.7799 4.33123C36.5339 4.69793 36.6317 5.19467 36.9985 5.44048C37.8945 6.04136 38.737 6.7012 39.5266 7.40974C39.3052 7.53787 39.0683 7.65172 38.814 7.74691C38.407 7.89924 38.144 8.27925 38.144 8.71534C38.144 9.15143 38.407 9.53144 38.8141 9.68388C40.9482 10.4818 41.8846 12.572 42.2527 13.7469C42.3886 14.1803 42.7854 14.4718 43.2402 14.4718C43.6949 14.4718 44.0917 14.1804 44.2277 13.7468C44.2554 13.6583 44.2868 13.564 44.3213 13.466C46.1125 16.7537 47.0911 20.4799 47.0911 24.345C47.0911 31.6377 43.6403 38.1385 38.2871 42.3037L37.5462 35.3792C40.0495 32.3894 41.5587 28.5403 41.5587 24.3449C41.5587 18.8341 38.9542 13.9217 34.9132 10.769C34.9132 10.769 34.5579 7.44801 34.5579 7.44791C34.3667 5.66199 32.4771 4.565 30.8485 5.19872C30.5201 5.32653 30.2175 5.51851 29.9623 5.76155C29.3883 6.30828 29.151 7.03293 29.1142 7.80405C27.5991 7.36657 25.9992 7.13131 24.3453 7.13131C21.6656 7.13131 19.1277 7.74829 16.864 8.84528L13.8102 8.44192C13.0712 8.34438 12.39 8.86628 12.2924 9.60553L11.9168 12.4494C8.95486 15.5426 7.13163 19.7343 7.13163 24.3449C7.13163 28.7326 8.78303 32.741 11.4955 35.7844L10.6134 42.4621C5.14115 38.3045 1.59927 31.7318 1.59927 24.3449C1.59927 18.2692 3.96529 12.5572 8.26145 8.26092C12.5572 3.96486 18.2693 1.59895 24.3451 1.59895C27.6664 1.59895 30.8673 2.29844 33.8587 3.6778C34.2599 3.86306 34.7346 3.6875 34.9195 3.28659C35.1043 2.88557 34.9293 2.41068 34.5282 2.22584C31.3253 0.748841 27.8992 0 24.3451 0C17.8422 0 11.7286 2.53231 7.13046 7.13046C2.53231 11.7286 0 17.8421 0 24.345C0 30.8478 2.53231 36.9613 7.13057 41.5595C8.14132 42.5703 9.227 43.4784 10.3725 44.2843L10.1891 45.6722C10.1314 46.1099 10.4393 46.5116 10.877 46.5695C11.3151 46.6276 11.7165 46.3192 11.7743 45.8816L14.0858 28.384L16.5941 28.7153L13.5127 52.0419C13.3131 53.5534 10.8063 53.2096 11.0046 51.7084C11.0144 51.634 11.2861 49.5771 11.2861 49.5771C11.3439 49.1394 11.0359 48.7377 10.5983 48.6798C10.1607 48.6221 9.75881 48.9299 9.70093 49.3677L9.41909 51.5011C9.32315 52.2273 9.51577 52.9475 9.96156 53.5289C11.4425 55.4605 14.7746 54.7234 15.0979 52.2513L15.7728 47.1423C18.4771 48.1578 21.3698 48.6902 24.3451 48.6902C27.3647 48.6902 30.3002 48.1433 33.0393 47.0979C33.0393 47.0979 33.5826 52.1759 33.5835 52.184C33.8461 54.6392 37.1748 55.4627 38.6866 53.5883C39.1464 53.0181 39.3569 52.3029 39.2789 51.5745L38.4864 44.1668C39.5699 43.3905 40.5983 42.521 41.5596 41.5597C46.1576 36.9613 48.6899 30.8478 48.6899 24.345V24.345ZM43.2401 11.9068C42.7063 10.8037 41.8399 9.55532 40.4628 8.71523C41.8401 7.87493 42.7063 6.62679 43.2401 5.52362C43.7738 6.6269 44.6401 7.87515 46.0172 8.71523C44.64 9.55554 43.7738 10.8037 43.2401 11.9068ZM39.9597 24.345C39.9597 27.5679 38.9774 30.5653 37.2974 33.0551L36.6907 27.3837L35.162 13.0958C38.1172 15.9386 39.9597 19.9303 39.9597 24.345V24.345ZM30.7204 7.68412C30.7356 7.36711 30.8848 7.06565 31.131 6.86429C31.8161 6.3102 32.8756 6.75567 32.9679 7.61803C32.9684 7.62304 35.0158 26.759 35.0158 26.759L32.4999 27.0281L32.2671 24.8529C32.1925 24.1546 31.8565 23.5197 31.3213 23.0652L30.4605 22.3338C30.1958 22.109 30.0477 21.7676 30.0642 21.4207C30.0643 21.4206 30.7204 7.68423 30.7204 7.68412V7.68412ZM24.3451 8.73026C25.9789 8.73026 27.5542 8.98407 29.0353 9.45182L28.4673 21.3443C28.4272 22.1831 28.7852 23.0085 29.4253 23.5523C29.9126 23.9664 30.5796 24.3382 30.6774 25.023L30.9951 27.9931L32.0568 37.9156C29.7802 39.2146 27.1485 39.9594 24.3451 39.9594C21.6778 39.9594 19.1654 39.286 16.9669 38.102L18.2839 28.1318L18.7759 24.4074C18.8009 24.2186 18.9246 24.059 19.0912 24.0008C20.6195 23.4659 21.7483 22.0513 21.9669 20.3971L23.202 11.0467C23.2494 10.6887 23.1544 10.3335 22.9346 10.0467C22.7148 9.75999 22.3965 9.576 22.0383 9.52878L20.209 9.28712C21.5268 8.92448 22.9136 8.73026 24.3451 8.73026V8.73026ZM13.0971 23.6574L12.6052 27.3818L11.7828 33.6076C9.86562 31.0145 8.73037 27.81 8.73037 24.345C8.73037 21.0407 9.76244 17.973 11.5206 15.4468L11.0571 18.956C10.8385 20.6104 11.5613 22.2694 12.8982 23.1826C13.044 23.2822 13.1222 23.4685 13.0971 23.6574V23.6574ZM14.295 26.7986L14.6823 23.8668C14.7871 23.0737 14.4491 22.3056 13.8001 21.8622C12.9564 21.286 12.5019 20.2272 12.6421 19.1652L13.845 10.0593L15.3382 10.2566L14.3333 17.864C14.2755 18.3017 14.5835 18.7034 15.0213 18.7613C15.0568 18.766 15.0921 18.7683 15.1269 18.7683C15.522 18.7683 15.8654 18.4755 15.9185 18.0734L16.9234 10.466L18.506 10.675L17.5011 18.2824C17.4434 18.7201 17.7513 19.1218 18.1891 19.1797C18.2246 19.1844 18.2599 19.1866 18.2948 19.1866C18.6898 19.1866 19.0333 18.8939 19.0863 18.4917L20.0912 10.8843L21.5844 11.0815L20.3816 20.1874C20.2413 21.2494 19.5274 22.1538 18.5629 22.4912C17.8212 22.7509 17.2953 23.4048 17.1906 24.1979L16.8034 27.1296L14.295 26.7986ZM24.3451 47.0911C21.3964 47.0911 18.5777 46.5255 15.9898 45.4996L16.7447 39.7847C19.0385 40.9186 21.618 41.5586 24.3451 41.5586C27.1897 41.5586 29.8743 40.8632 32.2409 39.6363L32.8613 45.4341C30.2293 46.5009 27.3551 47.0911 24.3451 47.0911ZM37.4421 52.5841C37.176 52.914 36.8081 52.9891 36.4321 53.0292C35.8043 53.0961 35.2405 52.6407 35.1733 52.0137L32.6699 28.618L35.1859 28.3488L37.689 51.7446C37.7216 52.0481 37.6338 52.3464 37.4421 52.5841Z" fill="#354052"/>
</svg>
