<svg width="51" height="51" viewBox="0 0 51 51" fill="none" xmlns="http://www.w3.org/2000/svg">
<path d="M49.9378 5.91057C49.2149 3.60638 48.2351 1.95656 48.1936 1.88723C48.0329 1.61886 47.7021 1.47926 47.4025 1.5489C47.3249 1.56686 45.4747 2.00454 43.3404 3.08482C40.4591 4.54273 38.4464 6.48909 37.5191 8.71248C36.7473 10.5641 36.6365 12.8278 37.1841 15.3285C36.0177 14.0083 34.7056 12.8534 33.2753 11.8812C32.8386 11.0068 31.6838 8.85394 29.8784 6.60393C29.2838 5.86321 28.14 6.79274 28.7407 7.54089C29.9572 9.05731 30.8729 10.5486 31.4455 11.5732L24.7682 10.254L18.424 1.4839C19.04 1.49257 19.6582 1.55293 20.2733 1.67519C22.2234 2.06211 24.1497 3.06872 25.9996 4.66654C26.7244 5.29273 27.6657 4.15302 26.9504 3.5355C24.9068 1.77053 22.7551 0.653726 20.5549 0.216971C17.1962 -0.449149 13.2789 0.425289 9.22533 2.74681C6.20412 4.47711 4.18377 6.37766 4.09947 6.45752C3.82917 6.7135 3.78611 7.17842 4.01243 7.47744C4.30868 8.09341 5.43141 10.3156 7.30027 12.708C8.40192 14.1185 9.56374 15.3257 10.7656 16.3178C10.4241 16.6078 10.0918 16.9111 9.7702 17.2303C8.05252 18.933 6.73738 20.9416 5.87396 23.1375C5.11072 25.0776 4.70023 27.1648 4.67733 29.3161C4.63945 32.834 5.6452 36.2268 7.58645 39.1284C9.4828 41.9625 12.1338 44.1385 15.2528 45.4209C16.1257 45.779 16.6776 44.4032 15.8041 44.0441C14.674 43.5795 13.6124 42.9843 12.6332 42.2763C12.7584 41.5725 13.0489 39.0392 11.3886 36.4168C11.1562 36.05 11.851 34.6095 12.2658 33.749C12.694 32.8621 13.1359 31.9453 13.3424 31.082C13.5617 30.1648 13.3149 29.395 12.6292 28.8549C12.1259 28.4584 11.4671 28.2532 10.8865 28.0721C10.5093 27.9544 10.0817 27.8213 9.92902 27.6923C9.61444 27.4251 9.10072 26.438 8.68779 25.6453C8.22966 24.7659 7.79353 23.9289 7.34822 23.4136C8.35031 21.0017 9.95987 18.8674 11.9756 17.2346C13.817 18.5059 15.9186 19.3831 18.1525 19.5608C15.5619 21.595 14.7238 24.193 15.9217 26.6884C17.3205 29.6024 20.1997 29.1369 22.7399 28.7267C23.1794 28.6555 23.6341 28.5822 24.0697 28.5271C24.2331 28.5064 24.2822 28.5515 24.3152 28.5809C24.8714 29.0824 24.8549 31.4773 24.843 33.2261C24.8268 35.6452 24.8115 37.9302 25.7006 39.1033C26.1541 39.7013 26.7928 40.0071 27.5414 40.0071C27.99 40.0071 28.4775 39.8976 28.9887 39.6753C31.1997 38.7158 33.498 35.8278 33.1473 33.5428C32.841 31.5451 32.6382 30.2252 33.1162 29.1613C33.5581 28.1767 34.6265 27.2651 36.7305 26.1019C36.9825 27.2518 37.1096 28.4482 37.0964 29.6755C37.0515 33.8647 35.3992 37.7856 32.4443 40.7154C29.1418 43.9896 24.5003 45.6066 19.9089 45.0937C18.9734 44.991 18.8119 46.4662 19.7486 46.5708C24.7743 47.1317 29.8555 45.3612 33.4693 41.7777C36.7046 38.57 38.5133 34.278 38.5624 29.6913C38.6278 23.6098 35.5489 18.222 30.8619 15.1183C31.8304 14.4185 32.5518 13.8133 32.9519 13.462C34.6607 14.7045 36.1765 16.2351 37.4376 18.0184C40.4649 22.3002 41.6655 27.5199 40.8189 32.717C39.0704 43.4452 29.0364 50.7325 18.449 48.9598C13.3207 48.1015 8.82951 45.2711 5.80219 40.9893C2.77456 36.7078 1.57395 31.4875 2.42088 26.2907C2.57298 25.3556 1.12743 25.1101 0.97472 26.0486C0.0636526 31.6373 1.35527 37.2507 4.61013 41.8551C7.8656 46.4588 12.6958 49.5028 18.2102 50.4261C19.3634 50.6189 20.5179 50.7143 21.6645 50.7143C25.9984 50.7143 30.2144 49.3505 33.8071 46.7414C38.3508 43.4421 41.3546 38.5477 42.265 32.959C42.9324 28.8639 42.4159 24.7554 40.8119 21.0404C41.5522 20.819 42.8121 20.3894 44.1919 19.6911C47.0727 18.2332 49.0857 16.2868 50.0126 14.0634C50.9405 11.8394 50.9145 9.02016 49.9378 5.91057ZM7.39098 26.3387C7.93646 27.3868 8.45232 28.3773 8.98833 28.8317C9.36796 29.1533 9.89634 29.318 10.4556 29.4922C11.8883 29.9386 12.0547 30.1577 11.9173 30.7319C11.7487 31.438 11.3419 32.2811 10.9488 33.0961C10.1917 34.6661 9.47669 36.1482 10.1544 37.2192C11.1156 38.7371 11.2802 40.2316 11.2637 41.1611C6.89742 37.1709 5.11957 30.8684 6.74593 25.1402C6.96156 25.5147 7.18818 25.9499 7.39098 26.3387ZM42.8579 11.7388L40.7746 6.62219C41.7883 5.66139 42.9645 4.93832 43.9662 4.42913C44.8196 3.99516 45.6314 3.67077 46.2825 3.44078L42.8579 11.7388ZM47.634 4.01683C47.9251 4.65076 48.2626 5.46824 48.5509 6.3922C48.867 7.40624 49.1572 8.66296 49.2149 9.97384L44.3327 12.0152L47.634 4.01683ZM38.8694 9.291C39.0856 8.77284 39.3651 8.29244 39.6879 7.84888L42.0595 13.6728L39.9313 18.8303C39.6323 18.1874 39.2802 17.343 38.9815 16.3837C38.3819 14.463 37.8762 11.6729 38.8694 9.291ZM43.5658 18.3468C42.7446 18.7646 41.9608 19.081 41.3225 19.3091L43.531 13.9582L49.1526 11.6073C49.071 12.2455 48.9156 12.8782 48.6624 13.4849C47.6695 15.8668 45.3428 17.4439 43.5658 18.3468ZM17.1327 17.924C16.8737 17.8726 16.618 17.8097 16.3661 17.7382L24.4792 11.711L31.1597 13.0305C28.7261 14.9738 22.8037 19.05 17.1327 17.924ZM9.71798 13.2757C7.98289 11.3804 6.71112 9.35384 5.98086 8.05627L14.4822 9.73612L9.71798 13.2757ZM11.2194 3.3634L14.7763 8.28037L6.22 6.59C7.29722 5.72794 9.07537 4.43377 11.2194 3.3634ZM16.8972 8.69948L12.585 2.73814C13.876 2.20047 15.2617 1.77734 16.6822 1.58914L22.6476 9.83517L16.8972 8.69948ZM16.4409 10.123L22.5209 11.324L14.7177 17.1207C13.2462 16.432 11.9219 15.4418 10.7631 14.3411L16.4409 10.123ZM36.3323 24.631C33.6895 26.0579 32.3954 27.1788 31.7815 28.546C31.1221 30.0141 31.3637 31.5899 31.6981 33.7709C31.8957 35.0571 30.3876 37.4519 28.4115 38.3097C27.6803 38.6269 27.1596 38.5895 26.863 38.1979C26.2806 37.4296 26.2965 35.1044 26.309 33.2364C26.3264 30.6517 26.3417 28.4197 25.2895 27.471C24.9111 27.1298 24.427 26.9856 23.8892 27.0525C23.4283 27.1107 22.9607 27.1862 22.509 27.2592C19.8142 27.6944 18.1186 27.8687 17.2402 26.0384C15.8169 23.074 18.6979 20.8782 20.0027 20.0718C20.2684 19.9078 20.5149 19.7143 20.7439 19.4989C23.8974 19.1169 26.8771 17.7457 29.5324 16.028C32.7161 17.9558 35.1601 21.0066 36.3323 24.631Z" fill="#354052"/>
</svg>
