<svg width="51" height="45" viewBox="0 0 51 45" fill="none" xmlns="http://www.w3.org/2000/svg">
<path d="M11.2117 43.6026L11.2117 43.6026L9.74146 41.5317L9.74143 41.5316C9.50927 41.2045 9.05571 41.1275 8.72842 41.3598L11.2117 43.6026ZM11.2117 43.6026C11.444 43.9298 11.367 44.3833 11.0398 44.6156C10.9119 44.7065 10.7654 44.7499 10.6201 44.7499C10.3919 44.7499 10.1684 44.6432 10.0268 44.4438L10.0268 44.4438L8.5566 42.3728L8.55658 42.3728M11.2117 43.6026L8.55658 42.3728M8.55658 42.3728C8.32425 42.0456 8.40123 41.5921 8.7284 41.3598L8.55658 42.3728Z" fill="black" stroke="#FAFBFC" stroke-width="0.5"/>
<path d="M7.0782 25.6828V25.3157V13.5485C7.0782 12.0743 6.07403 10.8229 4.63486 10.5035L4.63483 10.5035C3.70616 10.2971 2.74894 10.5204 2.00695 11.1157M7.0782 25.6828L2.00695 11.1157M7.0782 25.6828L7.33529 25.4207M7.0782 25.6828L7.33529 25.4207M2.00695 11.1157C1.26509 11.711 0.839941 12.5973 0.839941 13.5485V28.6903C0.839941 30.6428 1.43729 32.5161 2.56762 34.1084L4.30912 36.5616C4.47022 36.7885 4.72471 36.9097 4.98397 36.9097C5.14935 36.9097 5.31618 36.8603 5.4616 36.7571C5.8338 36.4928 5.92139 35.9769 5.65707 35.6046M2.00695 11.1157L5.65707 35.6046M7.33529 25.4207C8.42992 24.3045 10.191 24.1152 11.5004 24.9955L14.9165 27.2926C18.0282 29.3849 20.1657 32.5577 20.9357 36.2277L22.5357 43.8534C22.6295 44.3002 22.3433 44.7384 21.8966 44.8321C21.8392 44.8442 21.782 44.85 21.7259 44.85C21.3432 44.85 20.9996 44.5823 20.9179 44.193L19.3178 36.5671C18.6369 33.3217 16.746 30.5148 13.9941 28.6644L10.5782 26.3673L10.5782 26.3673C9.90673 25.9159 8.99642 26.0321 8.45977 26.6378L8.45975 26.6378C7.85995 27.315 7.85282 28.3086 8.42513 28.9931L8.42495 28.9933L8.43066 28.9994L8.4355 29.0048L8.43583 29.0052C8.43833 29.0081 8.44252 29.0129 8.44717 29.0178L8.44739 29.0181L10.6865 31.4012L10.6866 31.4012C11.992 32.7888 13.1351 34.006 13.1529 34.0249L13.1529 34.025C13.4655 34.3577 13.4491 34.8808 13.1163 35.1933C12.7835 35.5058 12.2603 35.4893 11.948 35.1566L11.9477 35.1563C11.9447 35.1531 11.9091 35.1152 11.8457 35.0477C11.6323 34.8205 11.1036 34.2577 10.4403 33.5522L10.4404 33.5522M7.33529 25.4207L10.4404 33.5522M5.65707 35.6046L5.65706 35.6046L3.91556 33.1514C2.98506 31.8406 2.49306 30.2976 2.49306 28.6902V13.5485C2.49306 13.1018 2.6932 12.6847 3.04154 12.4051L3.04154 12.4051C3.38982 12.1255 3.84031 12.0205 4.27672 12.1173C4.27672 12.1173 4.27672 12.1173 4.27673 12.1173L4.24422 12.2638L5.65707 35.6046ZM10.4404 33.5522L10.4371 33.5489M10.4404 33.5522L10.4371 33.5489M10.4371 33.5489L10.4312 33.5432L10.4285 33.5407L10.4371 33.5489Z" fill="#354052" stroke="#FAFBFC" stroke-width="0.3"/>
<path d="M7.92479 38.5405L7.91854 38.5318C7.60507 38.0927 6.9953 37.9907 6.55634 38.304C6.11738 38.6173 6.01542 39.2272 6.32861 39.6661L6.33486 39.6749C6.52548 39.942 6.82577 40.0844 7.13066 40.0844C7.32694 40.0844 7.52509 40.0254 7.69706 39.9026C8.13593 39.5894 8.23797 38.9795 7.92479 38.5405Z" fill="black"/>
<path d="M44.0445 25.4208L44.3016 25.683V25.3157V13.5486C44.3016 12.0744 45.3059 10.8229 46.745 10.5035C47.6733 10.2976 48.631 10.5205 49.3729 11.1158C50.1147 11.711 50.5398 12.5973 50.5401 13.5485C50.5401 13.5485 50.5401 13.5485 50.5401 13.5485V28.6903C50.5401 30.6429 49.9427 32.5162 48.8124 34.1085L41.4344 44.5017C41.2733 44.7286 41.0187 44.8498 40.7595 44.8498C40.5942 44.8498 40.4275 44.8004 40.2819 44.6972C39.9097 44.4329 39.8222 43.9169 40.0864 43.5447L39.9641 43.4579L40.0864 43.5447L47.4644 33.1515C48.3949 31.8407 48.8869 30.2977 48.8869 28.6902V13.5485C48.8869 13.1017 48.6868 12.6846 48.3384 12.4051L48.3384 12.405C47.99 12.1256 47.5396 12.0205 47.1033 12.1173L47.1358 12.2637L47.1033 12.1173C46.4276 12.2672 45.9548 12.8564 45.9548 13.5485V25.5618C45.9548 27.2252 45.3437 28.8097 44.2335 30.0428L44.2334 30.0427L44.2298 30.0471C44.1823 30.104 44.1344 30.1592 44.0844 30.2122L44.0844 30.2122C43.76 30.5559 42.6002 31.7885 41.5199 32.9368L40.0733 34.4747L39.6091 34.9682L39.4793 35.1062L39.4447 35.143L39.4355 35.1527L39.4331 35.1554L39.4322 35.1563L39.4319 35.1566C39.1194 35.4894 38.5964 35.5058 38.2636 35.1933C37.9309 34.8807 37.9145 34.3577 38.227 34.0249L40.5864 31.5145L42.1998 29.7978L42.7311 29.2324L42.8799 29.0741L42.9192 29.0324L42.9292 29.0217L42.9317 29.019L42.9324 29.0183L42.9325 29.0181L42.8233 28.9153L42.9326 29.0181L42.934 29.0166L42.9451 29.0041L42.9525 28.9958L42.9526 28.996L42.957 28.9906C43.5272 28.3061 43.5192 27.3141 42.9202 26.6378L42.9201 26.6377C42.3833 26.0321 41.473 25.9159 40.8017 26.3674C40.8017 26.3674 40.8017 26.3674 40.8017 26.3674L37.3856 28.6644C34.6337 30.5147 32.7429 33.3217 32.0619 36.567L30.4619 44.1929C30.3802 44.5823 30.0367 44.8499 29.6539 44.8499C29.5979 44.8499 29.5407 44.8442 29.4833 44.8321C29.0365 44.7384 28.7503 44.3003 28.8441 43.8535L30.4441 36.2277C31.2141 32.5577 33.3515 29.3848 36.4633 27.2926L39.8794 24.9956C39.8794 24.9956 39.8794 24.9956 39.8794 24.9956C41.1887 24.1153 42.95 24.3046 44.0445 25.4208Z" fill="#354052" stroke="#FAFBFC" stroke-width="0.3"/>
<mask id="path-5-inside-1" fill="white">
<path d="M38.0588 13.7167L36.3214 13.3017V12.9902C37.4506 12.1992 38.191 10.8893 38.191 9.40904V7.15036C38.191 4.74031 36.2304 2.77968 33.8203 2.77968C32.7388 2.77968 31.7485 3.17538 30.9846 3.8285C30.134 1.7455 28.0873 0.273438 25.7022 0.273438C23.3141 0.273438 21.2653 1.74931 20.4167 3.83631C19.6515 3.1785 18.6577 2.77948 17.5717 2.77948C15.1617 2.77948 13.2011 4.74012 13.2011 7.15017V7.30026V9.40885C13.2011 10.8891 13.9415 12.199 15.0707 12.99V13.3015L13.3333 13.7165C11.2589 14.2121 9.81006 16.0478 9.81006 18.1806V20.0044C9.81006 20.5438 10.2474 20.981 10.7866 20.981H15.2741C15.2672 21.0994 15.2624 21.2185 15.2624 21.3385V24.85C15.2624 25.3894 15.6997 25.8266 16.2389 25.8266H22.109C22.6483 25.8266 23.0856 25.3894 23.0856 24.85C23.0856 24.3106 22.6483 23.8734 22.109 23.8734H21.1001V21.8554C21.1001 21.316 20.6628 20.8788 20.1235 20.8788C19.5842 20.8788 19.1469 21.316 19.1469 21.8554V23.8736H17.2156V21.3387C17.2156 19.4552 18.4949 17.8332 20.3263 17.3944L23.0062 16.7522L24.7996 20.8324C24.9555 21.187 25.3063 21.416 25.6935 21.416H25.6936C26.0809 21.416 26.4317 21.1871 26.5875 20.8325L28.3791 16.7583L31.0505 17.3965C32.8837 17.8345 34.1641 19.4567 34.1641 21.3415V23.8736H32.2327V21.8554C32.2327 21.316 31.7954 20.8788 31.2562 20.8788C30.7169 20.8788 30.2796 21.316 30.2796 21.8554V23.8736H29.1729C28.6336 23.8736 28.1963 24.3108 28.1963 24.8502C28.1963 25.3895 28.6336 25.8267 29.1729 25.8267H35.1407C35.68 25.8267 36.1173 25.3895 36.1173 24.8502V21.3415C36.1173 21.2205 36.1124 21.1006 36.1054 20.9812H40.6055C41.1448 20.9812 41.5821 20.544 41.5821 20.0046V18.1808C41.5821 16.048 40.1333 14.2122 38.0588 13.7167ZM33.8203 4.7326C35.0998 4.7326 36.1502 5.73172 36.2326 6.9907H34.8749C33.7335 6.9907 32.6103 6.71589 31.6006 6.19265C31.972 5.33445 32.8273 4.7326 33.8203 4.7326ZM31.4027 9.26627C31.4039 9.21871 31.4064 9.17135 31.4064 9.1235V8.25378C32.5022 8.70729 33.6806 8.94381 34.8749 8.94381H36.2379V9.40895C36.2379 10.7419 35.1534 11.8265 33.8203 11.8265C32.4872 11.8265 31.4027 10.7419 31.4027 9.40885V9.26627ZM21.9512 5.97752C21.9512 3.90926 23.6338 2.22655 25.7022 2.22655C27.5677 2.22655 29.1194 3.59549 29.4059 5.38142L27.7618 4.41551C27.3506 4.17391 26.825 4.26463 26.5187 4.63035C25.7153 5.58914 24.5371 6.13904 23.2861 6.13904H21.9512V5.97752ZM17.5718 4.7326C18.5649 4.7326 19.4201 5.33455 19.7916 6.19255C18.7818 6.71579 17.6587 6.9906 16.5173 6.9906H15.1596C15.242 5.73172 16.2925 4.7326 17.5718 4.7326ZM15.1543 8.94371H16.5173C17.7129 8.94371 18.8925 8.7067 19.9894 8.25221V9.40875C19.9894 10.7418 18.9049 11.8263 17.5718 11.8263C16.2387 11.8263 15.1543 10.7419 15.1543 9.40885V8.94371ZM19.8713 15.495C17.95 15.9553 16.44 17.2949 15.7214 19.028H11.7632V18.1807C11.7632 16.9555 12.5954 15.9009 13.7871 15.6162L16.2742 15.0221C16.7137 14.9171 17.0239 14.5243 17.0239 14.0723V13.744C17.2036 13.7665 17.3862 13.7795 17.5718 13.7795C17.7561 13.7795 17.9375 13.7667 18.1158 13.7445V14.0231C18.1151 14.0376 18.1148 14.0522 18.1147 14.0667C18.1145 14.3871 18.272 14.701 18.5613 14.8881C18.6703 14.9587 18.7881 15.0046 18.9083 15.0276L20.365 15.3766L19.8713 15.495ZM22.5953 13.9789C22.3444 13.8683 22.0829 13.7798 21.8133 13.7153L20.0688 13.2972V12.9929C20.3837 12.7729 20.6683 12.5128 20.9152 12.2197C21.3513 12.8916 21.9244 13.4661 22.5953 13.9037V13.9789ZM26.8367 15.4138L25.6939 18.0129L24.5485 15.4072V14.7103C24.9212 14.7871 25.3071 14.8277 25.7022 14.8277C26.0906 14.8277 26.4699 14.7883 26.8367 14.714V15.4138ZM25.7022 12.8745C23.6338 12.8746 21.9512 11.1918 21.9512 9.1235V8.09206H23.2861C24.8347 8.09206 26.3072 7.51618 27.4357 6.48904L29.4495 7.67224V9.26637C29.3741 11.2686 27.7227 12.8745 25.7022 12.8745ZM28.7898 13.9821V13.916C29.4661 13.4787 30.0443 12.9027 30.4838 12.2279C30.729 12.5177 31.0112 12.7749 31.3231 12.9929V13.2972L29.5784 13.7153C29.3066 13.7805 29.0428 13.8701 28.7898 13.9821ZM39.6289 19.028H35.6572C34.9379 17.2949 33.4269 15.9561 31.5044 15.4968L31.0141 15.3797L32.4786 15.0287C32.6005 15.0061 32.7202 14.9596 32.8307 14.8881C33.1194 14.7013 33.2765 14.3874 33.2765 14.067C33.2765 14.0594 33.2764 14.0517 33.2762 14.0441V13.7445C33.4546 13.7667 33.6358 13.7795 33.8201 13.7795C34.0058 13.7795 34.1884 13.7665 34.3681 13.744V14.0723C34.3681 14.5243 34.6782 14.9171 35.1178 15.0221L37.6049 15.6162C38.7966 15.901 39.6289 16.9555 39.6289 18.1807V19.028Z"/>
</mask>
<path d="M38.0588 13.7167L36.3214 13.3017V12.9902C37.4506 12.1992 38.191 10.8893 38.191 9.40904V7.15036C38.191 4.74031 36.2304 2.77968 33.8203 2.77968C32.7388 2.77968 31.7485 3.17538 30.9846 3.8285C30.134 1.7455 28.0873 0.273438 25.7022 0.273438C23.3141 0.273438 21.2653 1.74931 20.4167 3.83631C19.6515 3.1785 18.6577 2.77948 17.5717 2.77948C15.1617 2.77948 13.2011 4.74012 13.2011 7.15017V7.30026V9.40885C13.2011 10.8891 13.9415 12.199 15.0707 12.99V13.3015L13.3333 13.7165C11.2589 14.2121 9.81006 16.0478 9.81006 18.1806V20.0044C9.81006 20.5438 10.2474 20.981 10.7866 20.981H15.2741C15.2672 21.0994 15.2624 21.2185 15.2624 21.3385V24.85C15.2624 25.3894 15.6997 25.8266 16.2389 25.8266H22.109C22.6483 25.8266 23.0856 25.3894 23.0856 24.85C23.0856 24.3106 22.6483 23.8734 22.109 23.8734H21.1001V21.8554C21.1001 21.316 20.6628 20.8788 20.1235 20.8788C19.5842 20.8788 19.1469 21.316 19.1469 21.8554V23.8736H17.2156V21.3387C17.2156 19.4552 18.4949 17.8332 20.3263 17.3944L23.0062 16.7522L24.7996 20.8324C24.9555 21.187 25.3063 21.416 25.6935 21.416H25.6936C26.0809 21.416 26.4317 21.1871 26.5875 20.8325L28.3791 16.7583L31.0505 17.3965C32.8837 17.8345 34.1641 19.4567 34.1641 21.3415V23.8736H32.2327V21.8554C32.2327 21.316 31.7954 20.8788 31.2562 20.8788C30.7169 20.8788 30.2796 21.316 30.2796 21.8554V23.8736H29.1729C28.6336 23.8736 28.1963 24.3108 28.1963 24.8502C28.1963 25.3895 28.6336 25.8267 29.1729 25.8267H35.1407C35.68 25.8267 36.1173 25.3895 36.1173 24.8502V21.3415C36.1173 21.2205 36.1124 21.1006 36.1054 20.9812H40.6055C41.1448 20.9812 41.5821 20.544 41.5821 20.0046V18.1808C41.5821 16.048 40.1333 14.2122 38.0588 13.7167ZM33.8203 4.7326C35.0998 4.7326 36.1502 5.73172 36.2326 6.9907H34.8749C33.7335 6.9907 32.6103 6.71589 31.6006 6.19265C31.972 5.33445 32.8273 4.7326 33.8203 4.7326ZM31.4027 9.26627C31.4039 9.21871 31.4064 9.17135 31.4064 9.1235V8.25378C32.5022 8.70729 33.6806 8.94381 34.8749 8.94381H36.2379V9.40895C36.2379 10.7419 35.1534 11.8265 33.8203 11.8265C32.4872 11.8265 31.4027 10.7419 31.4027 9.40885V9.26627ZM21.9512 5.97752C21.9512 3.90926 23.6338 2.22655 25.7022 2.22655C27.5677 2.22655 29.1194 3.59549 29.4059 5.38142L27.7618 4.41551C27.3506 4.17391 26.825 4.26463 26.5187 4.63035C25.7153 5.58914 24.5371 6.13904 23.2861 6.13904H21.9512V5.97752ZM17.5718 4.7326C18.5649 4.7326 19.4201 5.33455 19.7916 6.19255C18.7818 6.71579 17.6587 6.9906 16.5173 6.9906H15.1596C15.242 5.73172 16.2925 4.7326 17.5718 4.7326ZM15.1543 8.94371H16.5173C17.7129 8.94371 18.8925 8.7067 19.9894 8.25221V9.40875C19.9894 10.7418 18.9049 11.8263 17.5718 11.8263C16.2387 11.8263 15.1543 10.7419 15.1543 9.40885V8.94371ZM19.8713 15.495C17.95 15.9553 16.44 17.2949 15.7214 19.028H11.7632V18.1807C11.7632 16.9555 12.5954 15.9009 13.7871 15.6162L16.2742 15.0221C16.7137 14.9171 17.0239 14.5243 17.0239 14.0723V13.744C17.2036 13.7665 17.3862 13.7795 17.5718 13.7795C17.7561 13.7795 17.9375 13.7667 18.1158 13.7445V14.0231C18.1151 14.0376 18.1148 14.0522 18.1147 14.0667C18.1145 14.3871 18.272 14.701 18.5613 14.8881C18.6703 14.9587 18.7881 15.0046 18.9083 15.0276L20.365 15.3766L19.8713 15.495ZM22.5953 13.9789C22.3444 13.8683 22.0829 13.7798 21.8133 13.7153L20.0688 13.2972V12.9929C20.3837 12.7729 20.6683 12.5128 20.9152 12.2197C21.3513 12.8916 21.9244 13.4661 22.5953 13.9037V13.9789ZM26.8367 15.4138L25.6939 18.0129L24.5485 15.4072V14.7103C24.9212 14.7871 25.3071 14.8277 25.7022 14.8277C26.0906 14.8277 26.4699 14.7883 26.8367 14.714V15.4138ZM25.7022 12.8745C23.6338 12.8746 21.9512 11.1918 21.9512 9.1235V8.09206H23.2861C24.8347 8.09206 26.3072 7.51618 27.4357 6.48904L29.4495 7.67224V9.26637C29.3741 11.2686 27.7227 12.8745 25.7022 12.8745ZM28.7898 13.9821V13.916C29.4661 13.4787 30.0443 12.9027 30.4838 12.2279C30.729 12.5177 31.0112 12.7749 31.3231 12.9929V13.2972L29.5784 13.7153C29.3066 13.7805 29.0428 13.8701 28.7898 13.9821ZM39.6289 19.028H35.6572C34.9379 17.2949 33.4269 15.9561 31.5044 15.4968L31.0141 15.3797L32.4786 15.0287C32.6005 15.0061 32.7202 14.9596 32.8307 14.8881C33.1194 14.7013 33.2765 14.3874 33.2765 14.067C33.2765 14.0594 33.2764 14.0517 33.2762 14.0441V13.7445C33.4546 13.7667 33.6358 13.7795 33.8201 13.7795C34.0058 13.7795 34.1884 13.7665 34.3681 13.744V14.0723C34.3681 14.5243 34.6782 14.9171 35.1178 15.0221L37.6049 15.6162C38.7966 15.901 39.6289 16.9555 39.6289 18.1807V19.028Z" fill="#354052" stroke="#FAFBFC" stroke-width="0.6" mask="url(#path-5-inside-1)"/>
<path d="M26.3803 24.1592C26.1977 23.9775 25.9468 23.874 25.6899 23.874C25.432 23.874 25.1811 23.9775 24.9995 24.1592C24.8169 24.3418 24.7134 24.5928 24.7134 24.8506C24.7134 25.1074 24.8169 25.3584 24.9995 25.541C25.1811 25.7226 25.4321 25.8271 25.6899 25.8271C25.9468 25.8271 26.1977 25.7226 26.3803 25.541C26.5619 25.3584 26.6665 25.1074 26.6665 24.8506C26.6665 24.5928 26.562 24.3418 26.3803 24.1592Z" fill="#354052"/>
</svg>
